<?xml version="1.0" encoding="UTF-8"?>
<svg id="Capa_2" data-name="Capa 2" xmlns="http://www.w3.org/2000/svg" viewBox="0 0 288.14 308.63">
  <defs>
    <style>
      .cls-1 {
        stroke-width: 0px;
        color: white;
        fill: white
      }
    </style>
  </defs>
  <g id="Capa_1-2" data-name="Capa 1">
    <path class="cls-1" d="m196.76,308.63c-7.35-4.18-9.64-10.57-9.41-18.83.46-16.21.19-32.45.33-48.67.07-8.59-2.48-16.16-8.2-22.61-3.87-4.37-6.02-9.04-3.52-14.98,2.56-6.08,7.57-7.76,13.52-8.86,9.83-1.82,19.8-3.51,29.24-6.68,20.56-6.91,33.75-21.34,38.83-42.49,5.39-22.47,7.19-44.75-7.19-65.13-1.31-1.86-2.61-3.79-4.22-5.38-5.02-4.92-5.69-10.57-3.55-16.99,3.31-9.91,4-19.94.67-32.18-10.86,5.63-21.28,10.49-31.12,16.34-6.09,3.61-11.64,5.06-18.68,3.22-26.83-7.02-53.8-6.6-80.59.27-5.9,1.51-10.45.2-15.49-2.66-10.42-5.91-21.17-11.22-32.4-17.09-3.94,11.37-3.22,21.02-.03,30.38,2.55,7.49,1.55,13.43-3.85,19.42-15.32,16.98-16.43,37.55-13.23,58.68,6.03,39.78,29.26,54.16,67.27,60.3,2.25.36,4.54.56,6.75,1.08,10.53,2.48,14.53,13.33,7.53,21.67-6.86,8.17-9.63,17.21-9.38,27.76.36,15.3-.21,30.63.22,45.93.23,8.2-2.15,14.21-9.94,17.51h-6.86c-7.47-3.59-10.39-9.48-9.77-17.73.47-6.23.09-12.53.09-17.35-10.86-.99-20.72-1-30.18-2.93-17.93-3.64-29.13-16.77-40.18-30.13-4.34-5.25-10.04-9.65-15.79-13.41-5.96-3.9-9.2-10.28-6.88-16.9,2.14-6.11,9.89-10.72,16.13-7.9,7.1,3.21,14.01,7.56,19.8,12.75,6.22,5.58,10.93,12.83,16.51,19.16,10.95,12.41,24.77,13.94,39.6,10.55,1.3-8.95,2.52-17.41,3.53-24.32-13.28-6.48-27.17-11.5-39.11-19.47-21.33-14.24-31.36-35.99-35.32-60.89-4.3-27.03-2.13-52.71,14.17-75.94,1.53-2.18,1.62-5.99,1.14-8.84-2.35-14.02-1.32-27.66,3.03-41.18,2.14-6.66,5.55-11.83,12.46-14.11,4.12,0,8.23,0,12.35,0,14.17,6.01,28.31,12.08,42.54,17.95,1.71.71,3.97.77,5.81.39,26.99-5.66,53.95-5.58,80.95-.06,2.03.42,4.73.43,6.38-.58,13.33-8.12,27.45-14.21,42.68-17.7h12.35c6.64,2.66,10.6,7.68,12.06,14.51,1.66,7.77,3.76,15.59,4.11,23.46.35,7.85-3.04,16.17-1.45,23.56,1.6,7.42,7.97,13.66,11.13,20.91,8.24,18.9,7.49,38.79,4.25,58.52-5.92,36.04-25.33,61.31-60.62,73.23-4.83,1.63-9.71,3.11-14.33,4.58.95,4.4,2.37,8.16,2.46,11.95.5,20.05.51,40.11,1.04,60.16.22,8.49-2.68,14.57-10.79,17.74h-6.86Z"/>

  
  </g>
</svg>