<?xml version="1.0" encoding="UTF-8"?>
<svg  id="Capa_1" data-name="Capa 1" xmlns="http://www.w3.org/2000/svg" viewBox="0 0 400 410.61">
  <defs>
    <style>
      .cls-1 {
        stroke-width: 0px;
        fill: #FFFFFF
      }
    </style>
  </defs>
  <path class="cls-1" d="m222.79,158.54c29.45-11.06,58.16-17.07,87.85-13.42,52.26,6.41,88.1,46.14,88.93,98.95.78,49.92.25,99.87.12,149.81-.04,13.91-3.01,16.55-17.4,16.59-25.6.08-51.2.09-76.79,0-13.7-.05-17.05-3.25-17.09-17.1-.14-40.7,0-81.41-.08-122.11-.04-23.31-12.52-37.75-32.57-37.96-20.63-.21-33.7,14.46-33.75,38.26-.09,40.28,0,80.57-.04,120.85-.02,15.7-2.42,18.02-18.41,18.06-18.04.05-36.1-.3-54.13.12-11,.26-16.23-3.8-16.2-15.33.19-78.47.21-156.94-.02-235.41-.03-11.35,4.76-16.02,15.8-15.89,18.46.23,36.93.35,55.39-.05,10.24-.22,17.31,2.73,18.39,14.63Zm154.71,229.08c0-50.26,1.34-98.92-.43-147.47-1.42-38.81-28.4-67.41-66.27-72.6-29.68-4.07-58.57,1.36-85.41,15-20.6,10.47-24.41,8.77-26.2-13.64-.05-.65-.89-1.25-1.55-2.12h-41.76v220.71h43.77c0-5.28,0-9.8,0-14.32,0-34.4-.1-68.8.03-103.2.13-34.22,23.36-58.83,55.37-58.94,32.24-.11,55.36,24,55.59,58.48.23,34.82.06,69.64.06,104.45,0,4.45,0,8.9,0,13.64h66.8Z"/>
  <path class="cls-1" d="m.01,278.29c0-38.57-.03-77.13.02-115.7.02-16.11,2.28-18.48,17.92-18.54,25.15-.1,50.3-.11,75.45,0,14.34.07,17.59,3.38,17.6,17.95.06,76.71.05,153.42,0,230.13,0,15.66-2.69,18.29-18.27,18.32-25.15.06-50.3.07-75.45,0-15.13-.05-17.23-2.19-17.25-17.74-.06-38.15-.02-76.29-.02-114.44Zm22.57-111.67v220.64h65.05v-220.64H22.58Z"/>
  <path class="cls-1" d="m55.63,110.78C24.9,110.89.33,86.68.08,56.05-.18,24.76,24.53-.16,55.65,0c30.27.15,55.29,25.25,55.28,55.44,0,30.24-24.99,55.23-55.3,55.34Zm-.47-88.41c-18.36.1-32.66,14.3-32.85,32.62-.2,18.96,14.31,33.56,33.24,33.44,18.27-.11,32.81-14.46,33.02-32.58.22-18.66-14.68-33.59-33.41-33.49Z"/>
</svg>