<svg width="1000" height="1000" viewBox="0 0 1000 1000" fill="none" xmlns="http://www.w3.org/2000/svg">
<rect width="1000" height="1000" rx="500" fill="#00546B"/>
<path d="M676.968 676.424C698.642 667.256 724.483 663.92 757.827 664.751C756.889 658.513 744.974 651.103 736.245 645.674C733.315 643.852 730.743 642.253 729.067 640.996C715.729 631.411 701.557 621.404 687.388 612.655C682.823 609.866 676.251 607.538 669.926 605.299C665.858 603.858 661.891 602.453 658.628 600.985C655.294 599.626 650.752 598.268 645.849 596.801C634.203 593.316 620.516 589.221 616.115 583.064C604.782 568.33 596.873 550.514 588.975 532.722C588.159 530.884 587.343 529.046 586.524 527.212C582.389 517.762 577.79 508.125 573.165 498.434C567.999 487.611 562.801 476.719 558.182 465.943C556.169 461.554 554.639 457.405 553.133 453.32C551.207 448.097 549.319 442.98 546.513 437.602C516.084 378.835 471.074 329.652 416.473 295.059C398.548 283.805 378.546 273.382 356.454 266.299C349.707 264.276 342.233 263.95 334.686 263.621C328.245 263.341 321.75 263.058 315.608 261.715H306.854C301.801 260.311 297.314 256.259 293.141 252.489C291.119 250.663 289.171 248.903 287.267 247.543C274.345 238.792 261.425 232.953 246.004 226.704C240.586 224.204 225.164 218.368 219.746 222.954C216.41 223.788 214.744 225.038 213.91 228.372C210.576 233.374 213.497 240.876 215.578 245.459C219.71 254.273 224.933 260.721 230.286 267.328C233.034 270.72 235.816 274.154 238.502 277.971C239.785 279.782 241.122 281.633 242.482 283.516C248.634 292.033 255.245 301.186 259.342 310.062C265.122 322.515 269.243 335.679 273.348 348.795C276.938 360.264 280.516 371.697 285.183 382.585C288.933 391.339 294.769 401.341 300.187 409.261C301.886 411.578 304.101 413.667 306.344 415.781C310.15 419.369 314.035 423.032 315.609 428.016C319.662 434.771 312.22 454.114 307.699 465.867C306.641 468.618 305.742 470.953 305.189 472.614C294.351 506.788 296.434 554.304 308.938 583.895C309.385 584.938 309.829 585.997 310.276 587.064C314.83 597.941 319.718 609.616 331.862 612.655C332.24 612.277 332.276 612.156 332.357 612.098C332.455 612.028 332.619 612.05 333.53 611.821C334.14 607.03 334.659 602.275 335.171 597.588C337.107 579.846 338.939 563.062 345.2 548.886C348.183 541.566 353.104 535.657 357.9 529.897C360.478 526.802 363.02 523.749 365.205 520.545C367.851 522.131 368.817 525.731 369.81 529.429C370.381 531.558 370.961 533.72 371.876 535.548C372.269 536.487 372.665 537.431 373.063 538.382C378.145 550.52 383.614 563.578 389.797 575.559C403.551 602.235 418.975 628.074 436.478 651.416C442.312 659.752 450.65 668.922 458.152 676.424C459.293 677.422 460.482 678.274 461.654 679.113C463.906 680.726 466.092 682.291 467.738 684.759H468.572V686.012C460.659 683.109 454.583 676.868 448.651 670.776C445.21 667.242 441.818 663.758 438.144 661.004C419.388 646.832 396.883 625.574 383.961 605.153C379.891 596.387 375.587 587.855 371.223 579.205C369.777 576.341 368.326 573.463 366.874 570.56C366.874 570.56 366.876 570.141 366.874 569.726C365.281 571.85 365.042 573.973 364.754 576.529C364.59 577.984 364.41 579.58 363.955 581.395C362.411 587.338 361.645 593.517 360.905 599.49C359.051 614.462 357.358 628.132 343.95 633.495C322.694 642.249 306.854 619.32 300.187 608.903C278.931 574.31 273.095 515.958 288.099 468.862C289.259 465.237 290.067 461.359 290.872 457.493C292.382 450.246 293.883 443.038 297.687 437.602C296.851 432.593 293.972 429.999 291.159 427.463C289.759 426.201 288.375 424.953 287.267 423.43C281.431 415.513 276.432 406.343 271.845 397.591C265.181 384.581 259.969 369.638 254.917 355.156C253.333 350.614 251.764 346.117 250.172 341.74C248.749 338.082 247.822 334.424 246.908 330.814C245.947 327.019 244.999 323.279 243.504 319.65C239.564 311.113 233.04 302.578 226.983 294.654C225.35 292.518 223.751 290.426 222.246 288.391C220.622 286.061 218.473 283.36 216.076 280.349C204.324 265.587 186.641 243.373 195.989 220.87C213.495 177.941 274.766 210.448 298.519 225.454C300.894 226.981 303.407 229.198 306.002 231.487C309.784 234.822 313.739 238.311 317.693 240.041C322.904 240.251 328.115 240.563 333.327 240.876C338.536 241.188 343.745 241.501 348.952 241.71C350.658 242.109 352.355 242.502 354.042 242.892C371.714 246.985 388.222 250.808 402.301 258.797C473.99 300.895 520.671 343.824 563.6 414.679C569.428 424.214 573.405 434.256 577.454 444.482C579.776 450.345 582.122 456.269 584.855 462.194C595.275 486.367 606.95 511.788 619.033 534.714C620.552 537.753 621.973 540.89 623.397 544.034C627.05 552.101 630.723 560.209 636.123 566.808C638.063 569.582 642.407 571.062 646.569 572.481C648.66 573.193 650.705 573.89 652.376 574.728C657.767 577.504 663.606 580.025 669.492 582.566C678.623 586.508 687.866 590.499 695.724 595.567C719.897 610.571 743.239 628.49 764.494 646.832C768.791 650.677 772.352 655.379 775.909 660.075C778.908 664.035 781.903 667.991 785.334 671.424V675.174C778.666 677.258 771.996 679.342 765.328 681.01C758.073 682.875 751.231 683.606 744.442 684.331C737.58 685.064 730.773 685.792 723.649 687.678C722.751 687.934 721.831 688.2 720.893 688.47C712.689 690.838 703.119 693.599 694.89 694.348C695.305 694.764 695.724 695.179 695.724 695.179C699.741 706.615 716.823 716.446 730.822 724.503C735.702 727.311 740.208 729.905 743.655 732.275C759.911 743.945 774.914 758.116 787.002 774.37C789.08 776.448 791.159 778.422 793.237 780.396C795.327 782.382 797.417 784.368 799.506 786.458C800.918 788.476 801.841 790.787 802.75 793.06C803.718 795.481 804.668 797.86 806.174 799.796V801.046C802.527 799.743 800.021 797.139 797.534 794.555C796.042 793.004 794.556 791.46 792.836 790.21C788.91 787.534 784.985 784.627 781.061 781.721C775.818 777.838 770.574 773.955 765.328 770.62C757.264 765.526 748.55 761.513 739.793 757.481C731.353 753.594 722.873 749.689 714.895 744.779C705.728 738.943 696.973 732.275 688.222 725.607C680.302 719.771 671.553 708.515 666.548 700.181C665.287 698.2 664.493 696.063 663.729 694.006C662.725 691.303 661.772 688.738 659.878 686.843C660.502 680.922 666.254 679.428 671.73 678.005C673.576 677.526 675.391 677.054 676.968 676.424Z" fill="white"/>
<path d="M315.607 304.644C320.609 303.394 325.608 302.558 332.694 302.558C334.015 303.88 335.663 305.005 337.328 306.14C339.865 307.871 342.439 309.628 343.948 312.146C344.874 313.442 345.47 314.739 346.067 316.035C346.813 317.657 347.559 319.279 348.95 320.9C348.95 330.902 346.035 337.569 340.196 341.74C340.196 341.74 339.78 342.155 339.364 342.574C337.698 339.244 336.138 335.913 334.577 332.583C333.012 329.244 331.447 325.904 329.776 322.566C328.153 320.294 326.278 318.212 324.396 316.122C321.445 312.845 318.478 309.55 316.441 305.478H315.607V304.644Z" fill="white"/>
</svg>
